solid Shape0
facet normal 0 0 1
outer loop
vertex  0.33378140093447189 -1.4623918682727355 13.000000000000002
vertex  -1.4623918682727355 0.33378140093447162 13.000000000000002
vertex  2.7554552980815443E-16 -1.5 13.000000000000002
endloop
endfacet
facet normal 0 0 0.99999999999999989
outer loop
vertex  -1.4623918682727355 0.33378140093447162 13.000000000000002
vertex  -1.5 0 13.000000000000002
vertex  2.7554552980815443E-16 -1.5 13.000000000000002
endloop
endfacet
facet normal 0 0 1
outer loop
vertex  2.7554552980815443E-16 -1.5 13.000000000000002
vertex  -1.5 0 13.000000000000002
vertex  -0.33378140093447134 -1.4623918682727355 13.000000000000002
endloop
endfacet
facet normal 0 0 1
outer loop
vertex  1.3514533018536286 0.65082560867633732 13.000000000000002
vertex  -1.4623918682727355 0.33378140093447162 13.000000000000002
vertex  1.4623918682727355 0.33378140093447178 13.000000000000002
endloop
endfacet
facet normal 0 0 0.99999999999999989
outer loop
vertex  -1.4623918682727355 0.33378140093447162 13.000000000000002
vertex  1.5 1.83697019872103E-16 13.000000000000002
vertex  1.4623918682727355 0.33378140093447178 13.000000000000002
endloop
endfacet
facet normal 0 0 0.99999999999999989
outer loop
vertex  0.33378140093447189 -1.4623918682727355 13.000000000000002
vertex  0.65082560867633743 -1.3514533018536286 13.000000000000002
vertex  -1.4623918682727355 0.33378140093447162 13.000000000000002
endloop
endfacet
facet normal 0 0 1
outer loop
vertex  0.65082560867633743 -1.3514533018536286 13.000000000000002
vertex  0.93523470278810061 -1.1727472237020446 13.000000000000002
vertex  -1.4623918682727355 0.33378140093447162 13.000000000000002
endloop
endfacet
facet normal 0 0 1
outer loop
vertex  -1.4623918682727355 0.33378140093447162 13.000000000000002
vertex  0.93523470278810061 -1.1727472237020446 13.000000000000002
vertex  1.1727472237020451 -0.93523470278809961 13.000000000000002
endloop
endfacet
facet normal 0 0 0.99999999999999989
outer loop
vertex  1.1727472237020451 -0.93523470278809961 13.000000000000002
vertex  1.3514533018536292 -0.65082560867633654 13.000000000000002
vertex  -1.4623918682727355 0.33378140093447162 13.000000000000002
endloop
endfacet
facet normal 0 0 1
outer loop
vertex  1.3514533018536292 -0.65082560867633654 13.000000000000002
vertex  1.4623918682727355 -0.33378140093447073 13.000000000000002
vertex  -1.4623918682727355 0.33378140093447162 13.000000000000002
endloop
endfacet
facet normal 0 0 1
outer loop
vertex  -1.4623918682727355 0.33378140093447162 13.000000000000002
vertex  1.4623918682727355 -0.33378140093447073 13.000000000000002
vertex  1.5 1.83697019872103E-16 13.000000000000002
endloop
endfacet
facet normal 0 0 1
outer loop
vertex  1.3514533018536286 0.65082560867633732 13.000000000000002
vertex  1.1727472237020446 0.9352347027881005 13.000000000000002
vertex  -1.4623918682727355 0.33378140093447162 13.000000000000002
endloop
endfacet
facet normal 0 0 1
outer loop
vertex  1.1727472237020446 0.9352347027881005 13.000000000000002
vertex  0.93523470278810028 1.1727472237020449 13.000000000000002
vertex  -1.4623918682727355 0.33378140093447162 13.000000000000002
endloop
endfacet
facet normal 0 0 0.99999999999999989
outer loop
vertex  -1.4623918682727355 0.33378140093447162 13.000000000000002
vertex  0.93523470278810028 1.1727472237020449 13.000000000000002
vertex  0.6508256086763371 1.3514533018536288 13.000000000000002
endloop
endfacet
facet normal 0 0 0.99999999999999989
outer loop
vertex  0.6508256086763371 1.3514533018536288 13.000000000000002
vertex  0.33378140093447151 1.4623918682727355 13.000000000000002
vertex  -1.4623918682727355 0.33378140093447162 13.000000000000002
endloop
endfacet
facet normal 0 0 1
outer loop
vertex  0.33378140093447151 1.4623918682727355 13.000000000000002
vertex  -9.18485099360515E-17 1.5 13.000000000000002
vertex  -1.4623918682727355 0.33378140093447162 13.000000000000002
endloop
endfacet
facet normal 0 0 1
outer loop
vertex  -1.4623918682727355 0.33378140093447162 13.000000000000002
vertex  -9.18485099360515E-17 1.5 13.000000000000002
vertex  -1.3514533018536288 0.6508256086763371 13.000000000000002
endloop
endfacet
facet normal 0 0 1
outer loop
vertex  -1.1727472237020446 -0.93523470278810061 13.000000000000002
vertex  -0.93523470278810006 -1.1727472237020449 13.000000000000002
vertex  -1.3514533018536286 -0.65082560867633754 13.000000000000002
endloop
endfacet
facet normal 0 0 1
outer loop
vertex  -0.93523470278810006 -1.1727472237020449 13.000000000000002
vertex  -1.4623918682727353 -0.333781400934472 13.000000000000002
vertex  -1.3514533018536286 -0.65082560867633754 13.000000000000002
endloop
endfacet
facet normal 0 0 1
outer loop
vertex  -1.4623918682727353 -0.333781400934472 13.000000000000002
vertex  -0.93523470278810006 -1.1727472237020449 13.000000000000002
vertex  -1.5 0 13.000000000000002
endloop
endfacet
facet normal 0 0 1
outer loop
vertex  -0.93523470278810006 -1.1727472237020449 13.000000000000002
vertex  -0.65082560867633688 -1.351453301853629 13.000000000000002
vertex  -1.5 0 13.000000000000002
endloop
endfacet
facet normal 0 0 1
outer loop
vertex  -1.5 0 13.000000000000002
vertex  -0.65082560867633688 -1.351453301853629 13.000000000000002
vertex  -0.33378140093447134 -1.4623918682727355 13.000000000000002
endloop
endfacet
facet normal 0 0 1
outer loop
vertex  -9.18485099360515E-17 1.5 13.000000000000002
vertex  -0.33378140093447167 1.4623918682727355 13.000000000000002
vertex  -0.65082560867633721 1.3514533018536288 13.000000000000002
endloop
endfacet
facet normal 0 0 1
outer loop
vertex  -0.65082560867633721 1.3514533018536288 13.000000000000002
vertex  -0.93523470278810061 1.1727472237020446 13.000000000000002
vertex  -9.18485099360515E-17 1.5 13.000000000000002
endloop
endfacet
facet normal 0 0 1
outer loop
vertex  -0.93523470278810061 1.1727472237020446 13.000000000000002
vertex  -1.1727472237020446 0.93523470278810028 13.000000000000002
vertex  -9.18485099360515E-17 1.5 13.000000000000002
endloop
endfacet
facet normal 0 0 1
outer loop
vertex  -9.18485099360515E-17 1.5 13.000000000000002
vertex  -1.1727472237020446 0.93523470278810028 13.000000000000002
vertex  -1.3514533018536288 0.6508256086763371 13.000000000000002
endloop
endfacet
facet normal -0.9937122098932426 0.11196447610330763 0
outer loop
vertex  -1.4623918682727355 0.33378140093447162 13.000000000000002
vertex  -1.5 0 -13.000000000000002
vertex  -1.5 0 13.000000000000002
endloop
endfacet
facet normal -0.9937122098932426 -0.11196447610330816 0
outer loop
vertex  -1.5 0 -13.000000000000002
vertex  -1.4623918682727353 -0.333781400934472 -13.000000000000002
vertex  -1.5 0 13.000000000000002
endloop
endfacet
facet normal -0.9937122098932426 -0.11196447610330816 0
outer loop
vertex  -1.5 0 13.000000000000002
vertex  -1.4623918682727353 -0.333781400934472 -13.000000000000002
vertex  -1.4623918682727353 -0.333781400934472 13.000000000000002
endloop
endfacet
facet normal -0.94388333030836746 -0.33027906195516704 0
outer loop
vertex  -1.4623918682727353 -0.333781400934472 -13.000000000000002
vertex  -1.3514533018536286 -0.65082560867633754 -13.000000000000002
vertex  -1.4623918682727353 -0.333781400934472 13.000000000000002
endloop
endfacet
facet normal -0.94388333030836746 -0.33027906195516704 0
outer loop
vertex  -1.4623918682727353 -0.333781400934472 13.000000000000002
vertex  -1.3514533018536286 -0.65082560867633754 -13.000000000000002
vertex  -1.3514533018536286 -0.65082560867633754 13.000000000000002
endloop
endfacet
facet normal -0.84672419922828412 -0.53203207651533646 0
outer loop
vertex  -1.3514533018536286 -0.65082560867633754 -13.000000000000002
vertex  -1.1727472237020446 -0.93523470278810061 -13.000000000000002
vertex  -1.3514533018536286 -0.65082560867633754 13.000000000000002
endloop
endfacet
facet normal -0.84672419922828412 -0.53203207651533646 0
outer loop
vertex  -1.3514533018536286 -0.65082560867633754 13.000000000000002
vertex  -1.1727472237020446 -0.93523470278810061 -13.000000000000002
vertex  -1.1727472237020446 -0.93523470278810061 13.000000000000002
endloop
endfacet
facet normal -0.707106781186547 -0.707106781186548 0
outer loop
vertex  -1.1727472237020446 -0.93523470278810061 -13.000000000000002
vertex  -0.93523470278810006 -1.1727472237020449 -13.000000000000002
vertex  -1.1727472237020446 -0.93523470278810061 13.000000000000002
endloop
endfacet
facet normal -0.707106781186547 -0.707106781186548 0
outer loop
vertex  -1.1727472237020446 -0.93523470278810061 13.000000000000002
vertex  -0.93523470278810006 -1.1727472237020449 -13.000000000000002
vertex  -0.93523470278810006 -1.1727472237020449 13.000000000000002
endloop
endfacet
facet normal -0.53203207651533679 -0.846724199228284 0
outer loop
vertex  -0.93523470278810006 -1.1727472237020449 -13.000000000000002
vertex  -0.65082560867633688 -1.351453301853629 -13.000000000000002
vertex  -0.93523470278810006 -1.1727472237020449 13.000000000000002
endloop
endfacet
facet normal -0.53203207651533679 -0.846724199228284 0
outer loop
vertex  -0.93523470278810006 -1.1727472237020449 13.000000000000002
vertex  -0.65082560867633688 -1.351453301853629 -13.000000000000002
vertex  -0.65082560867633688 -1.351453301853629 13.000000000000002
endloop
endfacet
facet normal -0.33027906195516654 -0.9438833303083678 0
outer loop
vertex  -0.65082560867633688 -1.351453301853629 -13.000000000000002
vertex  -0.33378140093447134 -1.4623918682727355 -13.000000000000002
vertex  -0.65082560867633688 -1.351453301853629 13.000000000000002
endloop
endfacet
facet normal -0.33027906195516654 -0.9438833303083678 0
outer loop
vertex  -0.65082560867633688 -1.351453301853629 13.000000000000002
vertex  -0.33378140093447134 -1.4623918682727355 -13.000000000000002
vertex  -0.33378140093447134 -1.4623918682727355 13.000000000000002
endloop
endfacet
facet normal -0.11196447610330763 -0.9937122098932426 0
outer loop
vertex  -0.33378140093447134 -1.4623918682727355 -13.000000000000002
vertex  2.7554552980815443E-16 -1.5 -13.000000000000002
vertex  -0.33378140093447134 -1.4623918682727355 13.000000000000002
endloop
endfacet
facet normal -0.11196447610330763 -0.9937122098932426 0
outer loop
vertex  -0.33378140093447134 -1.4623918682727355 13.000000000000002
vertex  2.7554552980815443E-16 -1.5 -13.000000000000002
vertex  2.7554552980815443E-16 -1.5 13.000000000000002
endloop
endfacet
facet normal 0.11196447610330763 -0.9937122098932426 0
outer loop
vertex  2.7554552980815443E-16 -1.5 -13.000000000000002
vertex  0.33378140093447189 -1.4623918682727355 -13.000000000000002
vertex  2.7554552980815443E-16 -1.5 13.000000000000002
endloop
endfacet
facet normal 0.11196447610330763 -0.9937122098932426 0
outer loop
vertex  2.7554552980815443E-16 -1.5 13.000000000000002
vertex  0.33378140093447189 -1.4623918682727355 -13.000000000000002
vertex  0.33378140093447189 -1.4623918682727355 13.000000000000002
endloop
endfacet
facet normal 0.33027906195516771 -0.94388333030836746 0
outer loop
vertex  0.33378140093447189 -1.4623918682727355 -13.000000000000002
vertex  0.65082560867633743 -1.3514533018536286 -13.000000000000002
vertex  0.33378140093447189 -1.4623918682727355 13.000000000000002
endloop
endfacet
facet normal 0.33027906195516771 -0.94388333030836746 0
outer loop
vertex  0.33378140093447189 -1.4623918682727355 13.000000000000002
vertex  0.65082560867633743 -1.3514533018536286 -13.000000000000002
vertex  0.65082560867633743 -1.3514533018536286 13.000000000000002
endloop
endfacet
facet normal 0.53203207651533635 -0.84672419922828446 0
outer loop
vertex  0.65082560867633743 -1.3514533018536286 -13.000000000000002
vertex  0.93523470278810061 -1.1727472237020446 -13.000000000000002
vertex  0.65082560867633743 -1.3514533018536286 13.000000000000002
endloop
endfacet
facet normal 0.53203207651533635 -0.84672419922828446 0
outer loop
vertex  0.65082560867633743 -1.3514533018536286 13.000000000000002
vertex  0.93523470278810061 -1.1727472237020446 -13.000000000000002
vertex  0.93523470278810061 -1.1727472237020446 13.000000000000002
endloop
endfacet
facet normal 0.70710678118654835 -0.70710678118654668 0
outer loop
vertex  0.93523470278810061 -1.1727472237020446 -13.000000000000002
vertex  1.1727472237020451 -0.93523470278809961 -13.000000000000002
vertex  0.93523470278810061 -1.1727472237020446 13.000000000000002
endloop
endfacet
facet normal 0.70710678118654835 -0.70710678118654668 0
outer loop
vertex  0.93523470278810061 -1.1727472237020446 13.000000000000002
vertex  1.1727472237020451 -0.93523470278809961 -13.000000000000002
vertex  1.1727472237020451 -0.93523470278809961 13.000000000000002
endloop
endfacet
facet normal 0.846724199228284 -0.532032076515337 0
outer loop
vertex  1.1727472237020451 -0.93523470278809961 -13.000000000000002
vertex  1.3514533018536292 -0.65082560867633654 -13.000000000000002
vertex  1.1727472237020451 -0.93523470278809961 13.000000000000002
endloop
endfacet
facet normal 0.846724199228284 -0.532032076515337 0
outer loop
vertex  1.1727472237020451 -0.93523470278809961 13.000000000000002
vertex  1.3514533018536292 -0.65082560867633654 -13.000000000000002
vertex  1.3514533018536292 -0.65082560867633654 13.000000000000002
endloop
endfacet
facet normal 0.94388333030836813 -0.33027906195516565 0
outer loop
vertex  1.3514533018536292 -0.65082560867633654 -13.000000000000002
vertex  1.4623918682727355 -0.33378140093447073 -13.000000000000002
vertex  1.3514533018536292 -0.65082560867633654 13.000000000000002
endloop
endfacet
facet normal 0.94388333030836813 -0.33027906195516565 0
outer loop
vertex  1.3514533018536292 -0.65082560867633654 13.000000000000002
vertex  1.4623918682727355 -0.33378140093447073 -13.000000000000002
vertex  1.4623918682727355 -0.33378140093447073 13.000000000000002
endloop
endfacet
facet normal 0.99371220989324249 -0.11196447610330786 0
outer loop
vertex  1.4623918682727355 -0.33378140093447073 -13.000000000000002
vertex  1.5 1.83697019872103E-16 -13.000000000000002
vertex  1.4623918682727355 -0.33378140093447073 13.000000000000002
endloop
endfacet
facet normal 0.99371220989324249 -0.11196447610330786 0
outer loop
vertex  1.4623918682727355 -0.33378140093447073 13.000000000000002
vertex  1.5 1.83697019872103E-16 -13.000000000000002
vertex  1.5 1.83697019872103E-16 13.000000000000002
endloop
endfacet
facet normal 0.9937122098932426 0.11196447610330763 0
outer loop
vertex  1.5 1.83697019872103E-16 -13.000000000000002
vertex  1.4623918682727355 0.33378140093447178 -13.000000000000002
vertex  1.5 1.83697019872103E-16 13.000000000000002
endloop
endfacet
facet normal 0.9937122098932426 0.11196447610330763 0
outer loop
vertex  1.5 1.83697019872103E-16 13.000000000000002
vertex  1.4623918682727355 0.33378140093447178 -13.000000000000002
vertex  1.4623918682727355 0.33378140093447178 13.000000000000002
endloop
endfacet
facet normal 0.94388333030836746 0.33027906195516771 0
outer loop
vertex  1.4623918682727355 0.33378140093447178 -13.000000000000002
vertex  1.3514533018536286 0.65082560867633732 -13.000000000000002
vertex  1.4623918682727355 0.33378140093447178 13.000000000000002
endloop
endfacet
facet normal 0.94388333030836746 0.33027906195516771 0
outer loop
vertex  1.4623918682727355 0.33378140093447178 13.000000000000002
vertex  1.3514533018536286 0.65082560867633732 -13.000000000000002
vertex  1.3514533018536286 0.65082560867633732 13.000000000000002
endloop
endfacet
facet normal 0.84672419922828446 0.53203207651533635 0
outer loop
vertex  1.3514533018536286 0.65082560867633732 -13.000000000000002
vertex  1.1727472237020446 0.9352347027881005 -13.000000000000002
vertex  1.3514533018536286 0.65082560867633732 13.000000000000002
endloop
endfacet
facet normal 0.84672419922828446 0.53203207651533635 0
outer loop
vertex  1.3514533018536286 0.65082560867633732 13.000000000000002
vertex  1.1727472237020446 0.9352347027881005 -13.000000000000002
vertex  1.1727472237020446 0.9352347027881005 13.000000000000002
endloop
endfacet
facet normal 0.70710678118654746 0.70710678118654746 0
outer loop
vertex  1.1727472237020446 0.9352347027881005 -13.000000000000002
vertex  0.93523470278810028 1.1727472237020449 -13.000000000000002
vertex  1.1727472237020446 0.9352347027881005 13.000000000000002
endloop
endfacet
facet normal 0.70710678118654746 0.70710678118654746 0
outer loop
vertex  1.1727472237020446 0.9352347027881005 13.000000000000002
vertex  0.93523470278810028 1.1727472237020449 -13.000000000000002
vertex  0.93523470278810028 1.1727472237020449 13.000000000000002
endloop
endfacet
facet normal 0.53203207651533635 0.84672419922828446 0
outer loop
vertex  0.93523470278810028 1.1727472237020449 -13.000000000000002
vertex  0.6508256086763371 1.3514533018536288 -13.000000000000002
vertex  0.93523470278810028 1.1727472237020449 13.000000000000002
endloop
endfacet
facet normal 0.53203207651533635 0.84672419922828446 0
outer loop
vertex  0.93523470278810028 1.1727472237020449 13.000000000000002
vertex  0.6508256086763371 1.3514533018536288 -13.000000000000002
vertex  0.6508256086763371 1.3514533018536288 13.000000000000002
endloop
endfacet
facet normal 0.33027906195516704 0.94388333030836769 0
outer loop
vertex  0.6508256086763371 1.3514533018536288 -13.000000000000002
vertex  0.33378140093447151 1.4623918682727355 -13.000000000000002
vertex  0.6508256086763371 1.3514533018536288 13.000000000000002
endloop
endfacet
facet normal 0.33027906195516704 0.94388333030836769 0
outer loop
vertex  0.6508256086763371 1.3514533018536288 13.000000000000002
vertex  0.33378140093447151 1.4623918682727355 -13.000000000000002
vertex  0.33378140093447151 1.4623918682727355 13.000000000000002
endloop
endfacet
facet normal 0.11196447610330763 0.9937122098932426 0
outer loop
vertex  0.33378140093447151 1.4623918682727355 -13.000000000000002
vertex  -9.18485099360515E-17 1.5 -13.000000000000002
vertex  0.33378140093447151 1.4623918682727355 13.000000000000002
endloop
endfacet
facet normal 0.11196447610330763 0.9937122098932426 0
outer loop
vertex  0.33378140093447151 1.4623918682727355 13.000000000000002
vertex  -9.18485099360515E-17 1.5 -13.000000000000002
vertex  -9.18485099360515E-17 1.5 13.000000000000002
endloop
endfacet
facet normal -0.11196447610330765 0.99371220989324249 0
outer loop
vertex  -9.18485099360515E-17 1.5 -13.000000000000002
vertex  -0.33378140093447167 1.4623918682727355 -13.000000000000002
vertex  -9.18485099360515E-17 1.5 13.000000000000002
endloop
endfacet
facet normal -0.11196447610330765 0.99371220989324249 0
outer loop
vertex  -9.18485099360515E-17 1.5 13.000000000000002
vertex  -0.33378140093447167 1.4623918682727355 -13.000000000000002
vertex  -0.33378140093447167 1.4623918682727355 13.000000000000002
endloop
endfacet
facet normal -0.33027906195516704 0.94388333030836746 0
outer loop
vertex  -0.33378140093447167 1.4623918682727355 -13.000000000000002
vertex  -0.65082560867633721 1.3514533018536288 -13.000000000000002
vertex  -0.33378140093447167 1.4623918682727355 13.000000000000002
endloop
endfacet
facet normal -0.33027906195516704 0.94388333030836746 0
outer loop
vertex  -0.33378140093447167 1.4623918682727355 13.000000000000002
vertex  -0.65082560867633721 1.3514533018536288 -13.000000000000002
vertex  -0.65082560867633721 1.3514533018536288 13.000000000000002
endloop
endfacet
facet normal -0.53203207651533646 0.84672419922828412 0
outer loop
vertex  -0.65082560867633721 1.3514533018536288 -13.000000000000002
vertex  -0.93523470278810061 1.1727472237020446 -13.000000000000002
vertex  -0.65082560867633721 1.3514533018536288 13.000000000000002
endloop
endfacet
facet normal -0.53203207651533646 0.84672419922828412 0
outer loop
vertex  -0.65082560867633721 1.3514533018536288 13.000000000000002
vertex  -0.93523470278810061 1.1727472237020446 -13.000000000000002
vertex  -0.93523470278810061 1.1727472237020446 13.000000000000002
endloop
endfacet
facet normal -0.707106781186548 0.70710678118654713 0
outer loop
vertex  -0.93523470278810061 1.1727472237020446 -13.000000000000002
vertex  -1.1727472237020446 0.93523470278810028 -13.000000000000002
vertex  -0.93523470278810061 1.1727472237020446 13.000000000000002
endloop
endfacet
facet normal -0.707106781186548 0.70710678118654713 0
outer loop
vertex  -0.93523470278810061 1.1727472237020446 13.000000000000002
vertex  -1.1727472237020446 0.93523470278810028 -13.000000000000002
vertex  -1.1727472237020446 0.93523470278810028 13.000000000000002
endloop
endfacet
facet normal -0.846724199228284 0.53203207651533679 0
outer loop
vertex  -1.1727472237020446 0.93523470278810028 -13.000000000000002
vertex  -1.3514533018536288 0.6508256086763371 -13.000000000000002
vertex  -1.1727472237020446 0.93523470278810028 13.000000000000002
endloop
endfacet
facet normal -0.846724199228284 0.53203207651533679 0
outer loop
vertex  -1.1727472237020446 0.93523470278810028 13.000000000000002
vertex  -1.3514533018536288 0.6508256086763371 -13.000000000000002
vertex  -1.3514533018536288 0.6508256086763371 13.000000000000002
endloop
endfacet
facet normal -0.94388333030836746 0.3302790619551671 0
outer loop
vertex  -1.3514533018536288 0.6508256086763371 -13.000000000000002
vertex  -1.4623918682727355 0.33378140093447162 -13.000000000000002
vertex  -1.3514533018536288 0.6508256086763371 13.000000000000002
endloop
endfacet
facet normal -0.94388333030836746 0.3302790619551671 0
outer loop
vertex  -1.3514533018536288 0.6508256086763371 13.000000000000002
vertex  -1.4623918682727355 0.33378140093447162 -13.000000000000002
vertex  -1.4623918682727355 0.33378140093447162 13.000000000000002
endloop
endfacet
facet normal -0.9937122098932426 0.11196447610330763 0
outer loop
vertex  -1.4623918682727355 0.33378140093447162 -13.000000000000002
vertex  -1.5 0 -13.000000000000002
vertex  -1.4623918682727355 0.33378140093447162 13.000000000000002
endloop
endfacet
facet normal 0 0 -1
outer loop
vertex  0.33378140093447151 1.4623918682727355 -13.000000000000002
vertex  0.6508256086763371 1.3514533018536288 -13.000000000000002
vertex  1.4623918682727355 -0.33378140093447073 -13.000000000000002
endloop
endfacet
facet normal 0 0 -1
outer loop
vertex  -1.3514533018536288 0.6508256086763371 -13.000000000000002
vertex  1.4623918682727355 -0.33378140093447073 -13.000000000000002
vertex  -1.4623918682727355 0.33378140093447162 -13.000000000000002
endloop
endfacet
facet normal 0 0 -1
outer loop
vertex  1.4623918682727355 -0.33378140093447073 -13.000000000000002
vertex  1.3514533018536292 -0.65082560867633654 -13.000000000000002
vertex  -1.4623918682727355 0.33378140093447162 -13.000000000000002
endloop
endfacet
facet normal 0 0 -1
outer loop
vertex  1.3514533018536292 -0.65082560867633654 -13.000000000000002
vertex  1.1727472237020451 -0.93523470278809961 -13.000000000000002
vertex  -1.4623918682727355 0.33378140093447162 -13.000000000000002
endloop
endfacet
facet normal 0 0 -1
outer loop
vertex  1.1727472237020451 -0.93523470278809961 -13.000000000000002
vertex  0.93523470278810061 -1.1727472237020446 -13.000000000000002
vertex  -1.4623918682727355 0.33378140093447162 -13.000000000000002
endloop
endfacet
facet normal 0 0 -0.99999999999999989
outer loop
vertex  -1.4623918682727355 0.33378140093447162 -13.000000000000002
vertex  0.93523470278810061 -1.1727472237020446 -13.000000000000002
vertex  0.65082560867633743 -1.3514533018536286 -13.000000000000002
endloop
endfacet
facet normal 0 0 -1
outer loop
vertex  1.4623918682727355 -0.33378140093447073 -13.000000000000002
vertex  1.3514533018536286 0.65082560867633732 -13.000000000000002
vertex  1.5 5.5109105961630886E-16 -13.000000000000002
endloop
endfacet
facet normal 0 0 -1
outer loop
vertex  1.3514533018536286 0.65082560867633732 -13.000000000000002
vertex  1.4623918682727355 0.33378140093447178 -13.000000000000002
vertex  1.5 5.5109105961630886E-16 -13.000000000000002
endloop
endfacet
facet normal 0 0 -1
outer loop
vertex  -1.3514533018536288 0.6508256086763371 -13.000000000000002
vertex  -1.1727472237020446 0.93523470278810028 -13.000000000000002
vertex  1.4623918682727355 -0.33378140093447073 -13.000000000000002
endloop
endfacet
facet normal 0 0 -1
outer loop
vertex  -1.1727472237020446 0.93523470278810028 -13.000000000000002
vertex  -0.93523470278810061 1.1727472237020446 -13.000000000000002
vertex  1.4623918682727355 -0.33378140093447073 -13.000000000000002
endloop
endfacet
facet normal 0 0 -1
outer loop
vertex  1.4623918682727355 -0.33378140093447073 -13.000000000000002
vertex  -0.93523470278810061 1.1727472237020446 -13.000000000000002
vertex  -0.65082560867633721 1.3514533018536288 -13.000000000000002
endloop
endfacet
facet normal 0 0 -1
outer loop
vertex  0.6508256086763371 1.3514533018536288 -13.000000000000002
vertex  0.93523470278810028 1.1727472237020449 -13.000000000000002
vertex  1.4623918682727355 -0.33378140093447073 -13.000000000000002
endloop
endfacet
facet normal 0 0 -1
outer loop
vertex  0.93523470278810028 1.1727472237020449 -13.000000000000002
vertex  1.1727472237020446 0.9352347027881005 -13.000000000000002
vertex  1.4623918682727355 -0.33378140093447073 -13.000000000000002
endloop
endfacet
facet normal 0 0 -1
outer loop
vertex  1.4623918682727355 -0.33378140093447073 -13.000000000000002
vertex  1.1727472237020446 0.9352347027881005 -13.000000000000002
vertex  1.3514533018536286 0.65082560867633732 -13.000000000000002
endloop
endfacet
facet normal 0 0 -0.99999999999999989
outer loop
vertex  0.65082560867633743 -1.3514533018536286 -13.000000000000002
vertex  0.33378140093447189 -1.4623918682727355 -13.000000000000002
vertex  -1.4623918682727355 0.33378140093447162 -13.000000000000002
endloop
endfacet
facet normal 0 0 -1
outer loop
vertex  0.33378140093447189 -1.4623918682727355 -13.000000000000002
vertex  2.7554552980815443E-16 -1.5 -13.000000000000002
vertex  -1.4623918682727355 0.33378140093447162 -13.000000000000002
endloop
endfacet
facet normal 0 0 -1
outer loop
vertex  -1.4623918682727355 0.33378140093447162 -13.000000000000002
vertex  2.7554552980815443E-16 -1.5 -13.000000000000002
vertex  -0.33378140093447134 -1.4623918682727355 -13.000000000000002
endloop
endfacet
facet normal 0 0 -0.99999999999999989
outer loop
vertex  -1.3514533018536286 -0.65082560867633754 -13.000000000000002
vertex  -1.4623918682727353 -0.333781400934472 -13.000000000000002
vertex  -1.5 0 -13.000000000000002
endloop
endfacet
facet normal 0 0 -0.99999999999999989
outer loop
vertex  -0.65082560867633721 1.3514533018536288 -13.000000000000002
vertex  -0.33378140093447167 1.4623918682727355 -13.000000000000002
vertex  1.4623918682727355 -0.33378140093447073 -13.000000000000002
endloop
endfacet
facet normal 0 0 -1
outer loop
vertex  -0.33378140093447167 1.4623918682727355 -13.000000000000002
vertex  -9.18485099360515E-17 1.5 -13.000000000000002
vertex  1.4623918682727355 -0.33378140093447073 -13.000000000000002
endloop
endfacet
facet normal 0 0 -1
outer loop
vertex  1.4623918682727355 -0.33378140093447073 -13.000000000000002
vertex  -9.18485099360515E-17 1.5 -13.000000000000002
vertex  0.33378140093447151 1.4623918682727355 -13.000000000000002
endloop
endfacet
facet normal 0 0 -1
outer loop
vertex  -0.33378140093447134 -1.4623918682727355 -13.000000000000002
vertex  -0.65082560867633688 -1.351453301853629 -13.000000000000002
vertex  -1.4623918682727355 0.33378140093447162 -13.000000000000002
endloop
endfacet
facet normal 0 0 -1
outer loop
vertex  -0.65082560867633688 -1.351453301853629 -13.000000000000002
vertex  -0.93523470278810006 -1.1727472237020449 -13.000000000000002
vertex  -1.4623918682727355 0.33378140093447162 -13.000000000000002
endloop
endfacet
facet normal 0 0 -1
outer loop
vertex  -1.4623918682727355 0.33378140093447162 -13.000000000000002
vertex  -0.93523470278810006 -1.1727472237020449 -13.000000000000002
vertex  -1.5 0 -13.000000000000002
endloop
endfacet
facet normal 0 0 -1
outer loop
vertex  -0.93523470278810006 -1.1727472237020449 -13.000000000000002
vertex  -1.1727472237020446 -0.93523470278810061 -13.000000000000002
vertex  -1.5 0 -13.000000000000002
endloop
endfacet
facet normal 0 0 -1
outer loop
vertex  -1.5 0 -13.000000000000002
vertex  -1.1727472237020446 -0.93523470278810061 -13.000000000000002
vertex  -1.3514533018536286 -0.65082560867633754 -13.000000000000002
endloop
endfacet
endsolid
