<?xml version="1.0" encoding="UTF-8" standalone="no"?>
<!-- Created with Inkscape (http://www.inkscape.org/) -->

<svg
   xmlns:dc="http://purl.org/dc/elements/1.1/"
   xmlns:cc="http://creativecommons.org/ns#"
   xmlns:rdf="http://www.w3.org/1999/02/22-rdf-syntax-ns#"
   xmlns:svg="http://www.w3.org/2000/svg"
   xmlns="http://www.w3.org/2000/svg"
   xmlns:sodipodi="http://sodipodi.sourceforge.net/DTD/sodipodi-0.dtd"
   xmlns:inkscape="http://www.inkscape.org/namespaces/inkscape"
   width="100.08026"
   height="100.46564"
   id="svg2"
   version="1.1"
   inkscape:version="0.48.2 r9819"
   sodipodi:docname="wifi-wtf.svg">
  <defs
     id="defs4" />
  <sodipodi:namedview
     id="base"
     pagecolor="#ffffff"
     bordercolor="#666666"
     borderopacity="1.0"
     inkscape:pageopacity="0.0"
     inkscape:pageshadow="2"
     inkscape:zoom="3.8561644"
     inkscape:cx="33.621086"
     inkscape:cy="52.365661"
     inkscape:document-units="px"
     inkscape:current-layer="layer1"
     showgrid="false"
     fit-margin-top="0"
     fit-margin-left="0"
     fit-margin-right="0"
     fit-margin-bottom="0"
     inkscape:window-width="1208"
     inkscape:window-height="781"
     inkscape:window-x="20"
     inkscape:window-y="20"
     inkscape:window-maximized="0" />
  <metadata
     id="metadata7">
    <rdf:RDF>
      <cc:Work
         rdf:about="">
        <dc:format>image/svg+xml</dc:format>
        <dc:type
           rdf:resource="http://purl.org/dc/dcmitype/StillImage" />
        <dc:title />
      </cc:Work>
    </rdf:RDF>
  </metadata>
  <g
     inkscape:label="Layer 1"
     inkscape:groupmode="layer"
     id="layer1"
     transform="translate(-95.191499,-48.35146)">
    <path
       sodipodi:type="arc"
       style="fill:none;stroke:#0000ff;stroke-width:0.67566436;stroke-linecap:round;stroke-linejoin:round;stroke-miterlimit:4.5999999;stroke-opacity:1;stroke-dasharray:none"
       id="path3767"
       sodipodi:cx="52.185799"
       sodipodi:cy="58.392628"
       sodipodi:rx="30.624573"
       sodipodi:ry="29.288921"
       d="m 52.185799,29.103706 c 16.913484,1e-6 30.624572,13.113097 30.624572,29.288922"
       transform="matrix(2.8947807,0,0,3.0267901,-50.200651,-33.599422)"
       sodipodi:start="4.712389"
       sodipodi:end="6.2831853"
       sodipodi:open="true" />
    <path
       sodipodi:type="arc"
       style="fill:none;stroke:#0000ff;stroke-width:0.59172167;stroke-linecap:round;stroke-linejoin:round;stroke-miterlimit:4.5999999;stroke-opacity:1;stroke-dasharray:none"
       id="path3769"
       sodipodi:cx="46.55698"
       sodipodi:cy="84.056206"
       sodipodi:rx="20.225574"
       sodipodi:ry="20.416382"
       d="m 46.556981,63.639824 c 11.170276,0 20.225574,9.140725 20.225574,20.416382"
       transform="matrix(3.3958733,0,0,3.3641361,-57.25185,-139.61768)"
       sodipodi:start="4.712389"
       sodipodi:end="6.2831853"
       sodipodi:open="true" />
    <path
       sodipodi:type="arc"
       style="fill:none;stroke:#0000ff;stroke-width:0.63942376;stroke-linecap:round;stroke-linejoin:round;stroke-miterlimit:4.5999999;stroke-opacity:1;stroke-dasharray:none"
       id="path3771"
       sodipodi:cx="29.098114"
       sodipodi:cy="87.681549"
       sodipodi:rx="15.169181"
       sodipodi:ry="15.837007"
       d="m 29.098114,71.844543 c 8.377707,0 15.169181,7.090469 15.169181,15.837006"
       transform="matrix(3.195926,0,0,3.0611579,7.9562914,-125.35018)"
       sodipodi:start="4.712389"
       sodipodi:end="6.2831853"
       sodipodi:open="true" />
    <path
       sodipodi:type="arc"
       style="fill:none;stroke:#0000ff;stroke-width:0.65335348;stroke-linecap:round;stroke-linejoin:round;stroke-miterlimit:4.5999999;stroke-opacity:1;stroke-dasharray:none"
       id="path3773"
       sodipodi:cx="11.925456"
       sodipodi:cy="87.109123"
       sodipodi:rx="9.6357689"
       sodipodi:ry="9.1587505"
       d="m 11.925456,77.950373 c 5.321688,0 9.635769,4.100512 9.635769,9.15875"
       transform="matrix(2.9843979,0,0,3.1398352,65.22271,-130.3127)"
       sodipodi:start="4.712389"
       sodipodi:end="6.2831853"
       sodipodi:open="true" />
    <path
       sodipodi:open="true"
       sodipodi:end="6.2831853"
       sodipodi:start="4.712389"
       transform="matrix(1.0568933,0,0,1.1119398,87.495576,47.048983)"
       d="m 11.925456,77.950373 c 5.321688,0 9.635769,4.100512 9.635769,9.15875"
       sodipodi:ry="9.1587505"
       sodipodi:rx="9.6357689"
       sodipodi:cy="87.109123"
       sodipodi:cx="11.925456"
       id="path3775"
       style="fill:none;stroke:#0000ff;stroke-width:1.84490406;stroke-linecap:round;stroke-linejoin:round;stroke-miterlimit:4.5999999;stroke-opacity:1;stroke-dasharray:none"
       sodipodi:type="arc" />
    <g
       transform="scale(1.0975281,0.91113839)"
       style="font-size:109.31720734px;font-style:normal;font-weight:normal;line-height:125%;letter-spacing:0px;word-spacing:0px;fill:#0000ff;fill-opacity:0.97777776;stroke:#ffffff;stroke-width:4.19999981;stroke-linejoin:bevel;stroke-miterlimit:4;stroke-opacity:1;font-family:Sans"
       id="text3912">
      <path
         d="m 121.47771,136.11146 10.83564,0 0,13.5579 -10.83564,0 0,-13.5579 m 10.51538,-7.8465 -10.19511,0 0,-8.22014 c -2e-5,-3.59405 0.49817,-6.54761 1.49457,-8.86067 0.99636,-2.31299 3.09587,-4.99965 6.29855,-8.06001 l 4.80398,-4.750601 c 2.02831,-1.885954 3.48729,-3.665203 4.37696,-5.337754 0.92517,-1.672438 1.38777,-3.380518 1.38781,-5.124245 -4e-5,-3.167002 -1.17434,-5.729122 -3.52291,-7.686366 -2.31307,-1.957105 -5.39117,-2.935692 -9.23432,-2.935765 -2.81124,7.3e-5 -5.81817,0.62281 -9.0208,1.868214 -3.16709,1.245546 -6.47649,3.06038 -9.92823,5.44451 l 0,-10.034978 c 3.34498,-2.02827 6.72556,-3.540632 10.14174,-4.537091 3.45172,-0.9963 7.01022,-1.49449 10.6755,-1.494572 6.54761,8.2e-5 11.7964,1.725954 15.74638,5.177622 3.98547,3.45182 5.97823,8.006699 5.97828,13.664651 -5e-5,2.704522 -0.64058,5.284434 -1.92159,7.739744 -1.28111,2.419834 -3.52296,5.159881 -6.72557,8.220141 l -4.69722,4.59047 c -1.67253,1.67254 -2.86463,2.98918 -3.5763,3.94994 -0.67615,0.92524 -1.15654,1.83266 -1.44119,2.72225 -0.21354,0.74732 -0.37368,1.65474 -0.4804,2.72226 -0.10679,1.06758 -0.16016,2.52656 -0.16013,4.37695 l 0,6.56544"
         style=""
         id="path2990" />
    </g>
  </g>
</svg>
